<svg width="367.4" height="89.1" viewBox="0 0 367.4 89.1" xmlns="http://www.w3.org/2000/svg"><g id="svgGroup" stroke-linecap="round" fill-rule="evenodd" font-size="9pt" stroke="#000" stroke-width="0.25mm" fill="#000" style="stroke:#000;stroke-width:0.25mm;fill:#000"><path d="M 62.3 32.4 L 62.3 32.3 A 2.505 2.505 0 0 1 62.566 32.024 Q 62.933 31.7 63.3 31.7 A 0.993 0.993 0 0 1 63.782 31.81 Q 64.191 32.033 64.277 32.707 A 3.107 3.107 0 0 1 64.3 33.1 A 14.847 14.847 0 0 1 62.584 38.603 A 14.15 14.15 0 0 1 61.25 40.6 Q 58.7 43.8 55.1 45.5 Q 51.5 47.2 47.5 47.2 Q 44.7 47.2 42.1 46.3 A 17.693 17.693 0 0 1 37.422 43.8 A 14.825 14.825 0 0 1 33.8 39.85 Q 31 35.4 31 30.2 A 21.347 21.347 0 0 1 32.455 22.538 A 24.896 24.896 0 0 1 32.9 21.45 A 23.067 23.067 0 0 1 36.665 15.559 A 28.218 28.218 0 0 1 38.7 13.45 Q 42.6 9.8 48.4 7.6 A 32.416 32.416 0 0 1 54.913 5.916 Q 58.222 5.4 62 5.4 L 64.1 5.4 Q 64.9 5.4 66.8 5.6 Q 71.5 6 76.3 7.15 A 132.699 132.699 0 0 1 84.394 9.354 A 120.09 120.09 0 0 1 85.5 9.7 Q 89.9 11.1 93.6 12.4 A 111.912 111.912 0 0 0 95.786 13.144 Q 98.046 13.886 99.694 14.298 A 38.261 38.261 0 0 0 99.7 14.3 A 1.777 1.777 0 0 1 99.886 14.096 Q 100.215 13.78 100.952 13.25 A 31.587 31.587 0 0 1 101.45 12.9 Q 102.9 11.9 104.45 10.8 A 45.905 45.905 0 0 0 105.355 10.142 Q 105.818 9.796 106.205 9.485 A 18.466 18.466 0 0 0 106.9 8.9 A 4.326 4.326 0 0 0 107.062 8.749 Q 107.693 8.128 107.059 8.101 A 1.413 1.413 0 0 0 107 8.1 L 106.9 8.1 A 1.634 1.634 0 0 1 107.13 8.043 Q 107.372 8 107.7 8 A 2.436 2.436 0 0 1 108.301 8.07 A 1.594 1.594 0 0 1 109.2 8.65 A 2.611 2.611 0 0 1 109.533 9.207 A 1.986 1.986 0 0 1 109.7 10 Q 109.7 11.3 108.5 11.3 A 0.728 0.728 0 0 1 108.393 11.29 Q 108.169 11.256 107.7 11.1 A 0.455 0.455 0 0 0 107.38 10.967 Q 106.967 10.954 106.25 11.5 A 19.542 19.542 0 0 0 104.938 12.598 A 23.332 23.332 0 0 0 104.15 13.35 Q 103.1 14.4 102.5 15.1 Q 104.7 15.8 108.05 16.75 Q 111.4 17.7 115.25 18.65 A 95.263 95.263 0 0 0 122.569 20.162 A 87.573 87.573 0 0 0 122.8 20.2 Q 126.5 20.8 129.4 20.8 Q 131.26 20.8 132.612 20.491 A 7.373 7.373 0 0 0 133.85 20.1 A 3.338 3.338 0 0 0 134.666 19.621 A 2.233 2.233 0 0 0 135.5 17.8 A 2.435 2.435 0 0 1 135.559 17.254 A 1.913 1.913 0 0 1 135.75 16.75 A 0.816 0.816 0 0 1 136.238 16.363 Q 136.388 16.316 136.573 16.304 A 1.99 1.99 0 0 1 136.7 16.3 Q 137.175 16.3 137.38 17.068 A 2.935 2.935 0 0 1 137.4 17.15 A 10.795 10.795 0 0 1 137.503 17.635 Q 137.587 18.08 137.598 18.399 A 2.767 2.767 0 0 1 137.6 18.5 A 4.011 4.011 0 0 1 136.225 21.54 A 6.74 6.74 0 0 1 135.05 22.4 A 10.35 10.35 0 0 1 132.013 23.565 Q 130.733 23.848 129.255 23.892 A 18.567 18.567 0 0 1 128.7 23.9 Q 128.1 23.9 127.5 23.85 Q 126.9 23.8 126.2 23.7 Q 115 22.3 108.75 20.1 Q 102.902 18.041 101.125 17.296 A 16.086 16.086 0 0 1 100.9 17.2 Q 96.4 24.4 93.5 32 Q 90.6 39.6 88.05 47.2 Q 85.5 54.8 82.15 61.9 A 57.541 57.541 0 0 1 74.063 74.41 A 64.535 64.535 0 0 1 73.3 75.3 A 34.591 34.591 0 0 1 65.304 81.897 A 40.13 40.13 0 0 1 63.55 82.9 Q 57.8 86 51.1 87.55 Q 44.4 89.1 37.5 89.1 Q 30.3 89.1 23.6 87.35 A 41.392 41.392 0 0 1 14.698 83.933 A 36.798 36.798 0 0 1 11.6 82.1 Q 6.3 78.6 3.15 73.3 A 22.202 22.202 0 0 1 0.339 65.32 A 29.098 29.098 0 0 1 0 60.8 A 33.704 33.704 0 0 1 0.652 54.349 A 43.909 43.909 0 0 1 1.9 49.5 A 18.28 18.28 0 0 1 3.438 45.991 A 15.192 15.192 0 0 1 5.05 43.7 A 20.442 20.442 0 0 1 7.005 41.692 A 14.804 14.804 0 0 1 9.3 40 Q 11.5 38.7 12.8 38.7 A 2.636 2.636 0 0 1 13.337 38.75 Q 14.446 38.981 14.201 40.296 A 3.649 3.649 0 0 1 14.2 40.3 Q 13.678 40.909 12.514 41.706 A 21.239 21.239 0 0 1 12.15 41.95 A 20.42 20.42 0 0 0 10.843 42.887 Q 10.194 43.389 9.51 43.989 A 34.746 34.746 0 0 0 9.05 44.4 Q 7.452 45.853 6.041 48.104 A 24.482 24.482 0 0 0 5.95 48.25 Q 4.693 50.288 4.075 53.266 A 24.04 24.04 0 0 0 3.9 54.2 Q 3.7 55.5 3.55 56.8 Q 3.4 58.1 3.4 59.3 A 25.663 25.663 0 0 0 4.167 65.694 A 21.158 21.158 0 0 0 6.2 70.8 Q 9 75.8 13.55 79.1 Q 18.1 82.4 23.55 84.05 Q 28.689 85.606 33.694 85.606 A 32.133 32.133 0 0 0 34.3 85.6 Q 42.4 85.4 48.7 83.35 A 45.108 45.108 0 0 0 56.366 80.078 A 38.738 38.738 0 0 0 59.9 77.9 A 50.775 50.775 0 0 0 66.948 72.037 A 45.614 45.614 0 0 0 68.5 70.4 Q 71.4 67.219 74.301 62.725 A 82.088 82.088 0 0 0 74.7 62.1 Q 77.8 57.2 80.75 51.55 Q 83.7 45.9 86.35 40.3 Q 89 34.7 91.3 29.7 A 843.449 843.449 0 0 1 92.941 26.154 Q 93.589 24.761 94.179 23.51 A 435.949 435.949 0 0 1 95.3 21.15 Q 96.608 18.419 97.561 16.96 A 10.786 10.786 0 0 1 98.1 16.2 A 150.38 150.38 0 0 0 88.479 13.61 A 126.911 126.911 0 0 0 82.95 12.45 A 109.423 109.423 0 0 0 72.532 11.043 A 128.669 128.669 0 0 0 67.5 10.7 Q 62.855 10.452 58.842 11.164 A 28.682 28.682 0 0 0 54.15 12.4 Q 48.3 14.5 44.25 18.05 A 28.813 28.813 0 0 0 40.295 22.249 A 23.643 23.643 0 0 0 38.05 25.8 A 21.109 21.109 0 0 0 36.543 29.545 A 15.627 15.627 0 0 0 35.9 33.9 A 11.245 11.245 0 0 0 36.567 37.811 A 10.357 10.357 0 0 0 37.65 39.95 A 9.016 9.016 0 0 0 40.837 42.856 A 12.524 12.524 0 0 0 43 43.8 A 17.272 17.272 0 0 0 46.544 44.456 A 15.4 15.4 0 0 0 47.7 44.5 A 14.613 14.613 0 0 0 50.976 44.148 A 11.481 11.481 0 0 0 54 43 Q 56.7 41.5 58.55 39.35 Q 60.4 37.2 61.35 35.25 Q 62.284 33.334 62.3 32.431 A 1.757 1.757 0 0 0 62.3 32.4 Z M 199.097 84.938 A 63.779 63.779 0 0 0 206.1 85.3 Q 214.3 85.3 222.45 83.65 A 90.108 90.108 0 0 0 225.53 82.971 A 78.877 78.877 0 0 0 237.65 79.05 Q 244.7 76.1 249.6 72.2 Q 257.7 65.9 257.7 60.2 A 6.056 6.056 0 0 0 255.325 55.338 A 10.767 10.767 0 0 0 253.2 54 A 4.592 4.592 0 0 0 252.763 53.779 A 3.703 3.703 0 0 0 251.8 53.5 A 10.601 10.601 0 0 0 251.207 53.432 A 8.285 8.285 0 0 0 250.5 53.4 A 7.686 7.686 0 0 0 250.288 53.403 Q 249.465 53.426 249.13 53.631 A 0.421 0.421 0 0 0 248.9 54 A 0.453 0.453 0 0 0 249.043 54.306 Q 249.461 54.753 251.1 55.2 A 6.473 6.473 0 0 1 251.143 55.21 Q 252.984 55.632 253.549 56.905 A 3.162 3.162 0 0 1 253.8 58.2 A 4.514 4.514 0 0 1 253.785 58.572 Q 253.665 60.013 252.638 61.776 A 16.945 16.945 0 0 1 251.55 63.4 Q 249.3 66.4 245.7 69.3 A 48.725 48.725 0 0 1 245.108 69.75 Q 240.888 72.909 235.1 75.85 Q 228.9 79 221.6 81 Q 214.3 83 206.5 83 Q 198 83 192.8 80.6 A 25.536 25.536 0 0 1 192.527 80.472 Q 190.495 79.505 188.903 78.302 A 14.637 14.637 0 0 1 185.2 74.3 Q 182.8 70.4 182.8 65.9 A 19.536 19.536 0 0 1 183.025 62.941 A 21.48 21.48 0 0 1 185.05 56.65 A 24.987 24.987 0 0 1 185.719 55.39 A 26.423 26.423 0 0 1 191.35 48.55 Q 195.4 45 200.7 43.5 A 37.949 37.949 0 0 1 202.007 43.151 A 33.4 33.4 0 0 1 207.55 42.25 A 95.658 95.658 0 0 1 208.798 42.165 A 84.812 84.812 0 0 1 214 42 Q 216.2 42 218.15 42.05 Q 220.1 42.1 221.7 42.1 A 24.775 24.775 0 0 0 223.113 42.062 Q 224.46 41.985 225.4 41.75 A 3.437 3.437 0 0 0 226.109 41.494 A 2.115 2.115 0 0 0 227.2 40.3 Q 227.491 39.065 226.831 38.252 A 2.643 2.643 0 0 0 226.2 37.7 Q 225.281 37.109 223.91 36.648 A 19.275 19.275 0 0 0 222.35 36.2 Q 219.9 35.6 217.1 34.9 Q 214.3 34.2 211.75 33.1 A 12.741 12.741 0 0 1 211.28 32.886 A 10.851 10.851 0 0 1 207.55 30 A 6.414 6.414 0 0 1 207.12 29.414 Q 206.41 28.322 206.113 26.904 A 10.756 10.756 0 0 1 205.9 24.7 A 13.398 13.398 0 0 1 206.559 20.516 A 14.922 14.922 0 0 1 209 16 A 26.277 26.277 0 0 1 212.473 12.336 A 33.783 33.783 0 0 1 217.2 8.9 A 41.659 41.659 0 0 1 218.165 8.331 A 44.721 44.721 0 0 1 228.4 4.1 A 49.669 49.669 0 0 1 228.591 4.047 A 44.85 44.85 0 0 1 240.5 2.4 A 32.334 32.334 0 0 1 240.556 2.4 A 29.734 29.734 0 0 1 242.25 2.45 A 27.821 27.821 0 0 1 242.277 2.452 A 25.236 25.236 0 0 1 243.9 2.6 Q 247.51 2.928 249.719 3.967 A 7.2 7.2 0 0 1 251.65 5.25 A 8.858 8.858 0 0 1 252.238 5.868 A 6.461 6.461 0 0 1 253.9 10.2 A 8.453 8.453 0 0 1 253.885 10.706 Q 253.737 13.175 252.15 15.85 Q 250.4 18.8 247.65 20.9 A 13.646 13.646 0 0 1 246.083 21.939 A 10.582 10.582 0 0 1 241.9 23.3 A 8.999 8.999 0 0 0 241.047 23.389 Q 240.533 23.469 240.107 23.608 A 3.802 3.802 0 0 0 239.25 24 A 7.857 7.857 0 0 0 238.945 24.202 Q 238.49 24.52 238.356 24.737 A 0.318 0.318 0 0 0 238.3 24.9 Q 238.3 25.5 239.8 25.5 A 6.587 6.587 0 0 0 240.138 25.491 Q 240.726 25.46 241.544 25.331 A 26.773 26.773 0 0 0 242.3 25.2 A 42.143 42.143 0 0 0 244.544 24.644 Q 251.156 22.807 255.15 19.2 Q 257.548 17.034 258.709 14.842 A 8.772 8.772 0 0 0 259.8 10.7 A 7.062 7.062 0 0 0 259.603 9.031 Q 259.213 7.421 258.051 5.967 A 12.267 12.267 0 0 0 256.1 4.05 A 11.018 11.018 0 0 0 255.364 3.512 Q 251.637 1.015 244.3 0.2 A 28.202 28.202 0 0 0 243.786 0.148 A 32.819 32.819 0 0 0 242.4 0.05 Q 241.4 0 240.3 0 A 45.684 45.684 0 0 0 235.888 0.22 A 56.855 56.855 0 0 0 229.85 1.15 Q 224.3 2.3 218.9 4.4 Q 213.5 6.5 209 9.6 A 35.433 35.433 0 0 0 206.225 11.715 A 28.714 28.714 0 0 0 201.65 16.55 Q 198.8 20.4 198.4 25 Q 198.296 26.51 198.747 27.911 A 8.629 8.629 0 0 0 200.05 30.4 A 15.637 15.637 0 0 0 201.446 32.036 A 17.791 17.791 0 0 0 204.8 34.7 Q 207.7 36.5 210.5 37.5 Q 208.1 37.6 205.25 38.1 Q 203.469 38.413 202.02 38.764 A 31.472 31.472 0 0 0 200.4 39.2 A 48.53 48.53 0 0 0 194.269 41.422 A 36.807 36.807 0 0 0 187 45.65 A 36.301 36.301 0 0 0 183.241 48.896 A 28.055 28.055 0 0 0 178.6 54.9 Q 175.7 60 175.7 65.1 A 16.488 16.488 0 0 0 176.237 69.299 A 17.963 17.963 0 0 0 178.95 75.05 A 16.771 16.771 0 0 0 179.977 76.373 Q 181.778 78.468 184.38 80.14 A 28.978 28.978 0 0 0 188.95 82.5 A 30.459 30.459 0 0 0 192.711 83.768 Q 195.64 84.556 199.097 84.938 Z M 136.1 80.5 Q 140.3 71.9 144.85 62.45 Q 149.4 53 154.2 43.4 A 672.359 672.359 0 0 1 161.344 29.506 A 594.047 594.047 0 0 1 163.7 25.1 A 46.265 46.265 0 0 1 164.839 23.191 Q 165.402 22.301 165.934 21.569 A 19.24 19.24 0 0 1 166.85 20.4 A 4.735 4.735 0 0 1 170.322 18.711 A 6.468 6.468 0 0 1 170.7 18.7 A 6.611 6.611 0 0 1 171.481 18.75 Q 172.088 18.822 172.8 19 A 5.958 5.958 0 0 0 173.86 19.169 Q 174.495 19.21 175.1 19.1 A 14.86 14.86 0 0 0 174.391 19.931 Q 173.238 21.375 171.55 24 A 124.32 124.32 0 0 0 169.792 26.822 Q 168.269 29.338 166.55 32.4 Q 163.8 37.3 160.75 42.95 Q 157.7 48.6 154.75 54.35 Q 151.8 60.1 149.3 65.1 Q 151.3 62.5 153.4 60.2 Q 155.5 57.9 157.5 56.2 A 34.677 34.677 0 0 1 159.561 54.477 Q 160.677 53.611 161.991 52.71 A 64.809 64.809 0 0 1 163.05 52 A 58.12 58.12 0 0 1 168.494 48.821 A 51.932 51.932 0 0 1 169.75 48.2 Q 172.673 46.804 174.568 46.626 A 5.695 5.695 0 0 1 175.1 46.6 A 7.84 7.84 0 0 1 175.425 46.606 Q 175.737 46.619 175.94 46.659 A 1.3 1.3 0 0 1 176.1 46.7 L 175 48.7 Q 173.955 50.6 172.413 53.494 A 765.327 765.327 0 0 0 172.25 53.8 A 191.052 191.052 0 0 0 170.149 57.87 A 232.177 232.177 0 0 0 168.85 60.5 A 112.7 112.7 0 0 0 166.838 64.863 A 92.07 92.07 0 0 0 165.8 67.35 A 49.39 49.39 0 0 0 165.076 69.269 Q 164.422 71.124 164.139 72.506 A 14.24 14.24 0 0 0 164.1 72.7 A 21.691 21.691 0 0 0 163.923 73.785 Q 163.854 74.297 163.824 74.744 A 9.721 9.721 0 0 0 163.8 75.4 A 6.674 6.674 0 0 0 163.835 76.113 Q 163.945 77.133 164.4 77.55 Q 165 78.1 165.7 78.1 A 3.327 3.327 0 0 0 167.067 77.783 Q 168.067 77.333 169.158 76.248 A 12.936 12.936 0 0 0 169.4 76 Q 171.369 73.933 173.241 70.945 A 43.758 43.758 0 0 0 173.3 70.85 Q 175.2 67.8 176.75 64.9 A 372.323 372.323 0 0 0 177.478 63.531 Q 178.181 62.204 178.684 61.221 A 94.572 94.572 0 0 0 179.1 60.4 Q 179.525 59.622 179.949 59.394 A 0.737 0.737 0 0 1 180.3 59.3 A 0.63 0.63 0 0 1 180.577 59.356 Q 180.9 59.513 180.9 60.1 A 1.59 1.59 0 0 1 180.877 60.353 Q 180.817 60.722 180.6 61.3 A 903.157 903.157 0 0 1 179.259 63.971 Q 178.548 65.38 177.756 66.941 A 1472.891 1472.891 0 0 1 177.65 67.15 Q 176 70.4 173.95 73.35 A 24.123 24.123 0 0 1 171.522 76.332 A 19.337 19.337 0 0 1 169.45 78.2 A 9.361 9.361 0 0 1 166.995 79.595 A 7.914 7.914 0 0 1 164.2 80.1 A 6.349 6.349 0 0 1 161.918 79.657 Q 161.103 79.345 160.272 78.812 A 11.247 11.247 0 0 1 160.1 78.7 Q 158 77.3 158 73.6 Q 158 72.5 158.2 71.25 A 16.226 16.226 0 0 1 158.433 70.089 Q 158.619 69.3 158.9 68.4 A 16.766 16.766 0 0 1 159.563 66.598 Q 159.95 65.699 160.472 64.724 A 31.576 31.576 0 0 1 160.9 63.95 Q 162.3 61.5 164.5 57.8 A 12.164 12.164 0 0 0 164.961 56.946 Q 165.373 56.096 165.47 55.466 A 2.41 2.41 0 0 0 165.5 55.1 A 1.728 1.728 0 0 0 165.441 54.625 Q 165.288 54.093 164.745 53.951 A 1.768 1.768 0 0 0 164.3 53.9 Q 163.456 53.9 162.113 54.613 A 13.416 13.416 0 0 0 161.6 54.9 A 13.054 13.054 0 0 0 160.481 55.649 Q 159.43 56.424 158.124 57.625 A 50.606 50.606 0 0 0 157.3 58.4 A 43.151 43.151 0 0 0 155.62 60.115 Q 153.922 61.939 151.804 64.531 A 147.707 147.707 0 0 0 151.1 65.4 A 47.301 47.301 0 0 0 148.497 69 Q 145.956 72.853 143.2 78.3 A 4.683 4.683 0 0 1 142.864 78.841 Q 142.301 79.612 141.65 79.65 Q 140.8 79.7 139.4 79.8 Q 138.5 79.9 137.6 79.95 A 2.896 2.896 0 0 0 136.852 80.086 A 2.274 2.274 0 0 0 136.1 80.5 Z M 271.5 80.5 Q 275.7 71.9 280.25 62.45 Q 284.8 53 289.6 43.4 A 672.359 672.359 0 0 1 296.744 29.506 A 594.047 594.047 0 0 1 299.1 25.1 A 46.265 46.265 0 0 1 300.239 23.191 Q 300.802 22.301 301.334 21.569 A 19.24 19.24 0 0 1 302.25 20.4 A 4.735 4.735 0 0 1 305.722 18.711 A 6.468 6.468 0 0 1 306.1 18.7 A 6.611 6.611 0 0 1 306.881 18.75 Q 307.488 18.822 308.2 19 A 5.958 5.958 0 0 0 309.26 19.169 Q 309.895 19.21 310.5 19.1 A 14.86 14.86 0 0 0 309.791 19.931 Q 308.638 21.375 306.95 24 A 124.32 124.32 0 0 0 305.192 26.822 Q 303.669 29.338 301.95 32.4 Q 299.2 37.3 296.15 42.95 Q 293.1 48.6 290.15 54.35 Q 287.2 60.1 284.7 65.1 Q 286.7 62.5 288.8 60.2 Q 290.9 57.9 292.9 56.2 A 34.677 34.677 0 0 1 294.961 54.477 Q 296.077 53.611 297.391 52.71 A 64.809 64.809 0 0 1 298.45 52 A 58.12 58.12 0 0 1 303.894 48.821 A 51.932 51.932 0 0 1 305.15 48.2 Q 308.073 46.804 309.968 46.626 A 5.695 5.695 0 0 1 310.5 46.6 A 7.84 7.84 0 0 1 310.825 46.606 Q 311.137 46.619 311.34 46.659 A 1.3 1.3 0 0 1 311.5 46.7 L 310.4 48.7 Q 309.355 50.6 307.813 53.494 A 765.327 765.327 0 0 0 307.65 53.8 A 191.052 191.052 0 0 0 305.549 57.87 A 232.177 232.177 0 0 0 304.25 60.5 A 112.7 112.7 0 0 0 302.238 64.863 A 92.07 92.07 0 0 0 301.2 67.35 A 49.39 49.39 0 0 0 300.476 69.269 Q 299.822 71.124 299.539 72.506 A 14.24 14.24 0 0 0 299.5 72.7 A 21.691 21.691 0 0 0 299.323 73.785 Q 299.254 74.297 299.224 74.744 A 9.721 9.721 0 0 0 299.2 75.4 A 6.674 6.674 0 0 0 299.235 76.113 Q 299.345 77.133 299.8 77.55 Q 300.4 78.1 301.1 78.1 A 3.327 3.327 0 0 0 302.467 77.783 Q 303.467 77.333 304.558 76.248 A 12.936 12.936 0 0 0 304.8 76 Q 306.769 73.933 308.641 70.945 A 43.758 43.758 0 0 0 308.7 70.85 Q 310.6 67.8 312.15 64.9 A 372.323 372.323 0 0 0 312.878 63.531 Q 313.581 62.204 314.084 61.221 A 94.572 94.572 0 0 0 314.5 60.4 Q 314.925 59.622 315.349 59.394 A 0.737 0.737 0 0 1 315.7 59.3 A 0.63 0.63 0 0 1 315.977 59.356 Q 316.3 59.513 316.3 60.1 A 1.59 1.59 0 0 1 316.277 60.353 Q 316.217 60.722 316 61.3 A 903.157 903.157 0 0 1 314.659 63.971 Q 313.948 65.38 313.156 66.941 A 1472.891 1472.891 0 0 1 313.05 67.15 Q 311.4 70.4 309.35 73.35 A 24.123 24.123 0 0 1 306.922 76.332 A 19.337 19.337 0 0 1 304.85 78.2 A 9.361 9.361 0 0 1 302.395 79.595 A 7.914 7.914 0 0 1 299.6 80.1 A 6.349 6.349 0 0 1 297.318 79.657 Q 296.503 79.345 295.672 78.812 A 11.247 11.247 0 0 1 295.5 78.7 Q 293.4 77.3 293.4 73.6 Q 293.4 72.5 293.6 71.25 A 16.226 16.226 0 0 1 293.833 70.089 Q 294.019 69.3 294.3 68.4 A 16.766 16.766 0 0 1 294.963 66.598 Q 295.35 65.699 295.872 64.724 A 31.576 31.576 0 0 1 296.3 63.95 Q 297.7 61.5 299.9 57.8 A 12.164 12.164 0 0 0 300.361 56.946 Q 300.773 56.096 300.87 55.466 A 2.41 2.41 0 0 0 300.9 55.1 A 1.728 1.728 0 0 0 300.841 54.625 Q 300.688 54.093 300.145 53.951 A 1.768 1.768 0 0 0 299.7 53.9 Q 298.856 53.9 297.513 54.613 A 13.416 13.416 0 0 0 297 54.9 A 13.054 13.054 0 0 0 295.881 55.649 Q 294.83 56.424 293.524 57.625 A 50.606 50.606 0 0 0 292.7 58.4 A 43.151 43.151 0 0 0 291.02 60.115 Q 289.322 61.939 287.204 64.531 A 147.707 147.707 0 0 0 286.5 65.4 A 47.301 47.301 0 0 0 283.897 69 Q 281.356 72.853 278.6 78.3 A 4.683 4.683 0 0 1 278.264 78.841 Q 277.701 79.612 277.05 79.65 Q 276.2 79.7 274.8 79.8 Q 273.9 79.9 273 79.95 A 2.896 2.896 0 0 0 272.252 80.086 A 2.274 2.274 0 0 0 271.5 80.5 Z M 342.4 70.4 L 342.4 67.9 A 58.671 58.671 0 0 1 338.522 74.453 A 50.842 50.842 0 0 1 336.85 76.75 A 28.267 28.267 0 0 1 334.959 78.97 Q 333.93 80.049 332.92 80.83 A 11.509 11.509 0 0 1 330.9 82.1 A 9.994 9.994 0 0 1 328.986 82.834 A 7.752 7.752 0 0 1 327 83.1 A 5.644 5.644 0 0 1 325.286 82.851 A 4.598 4.598 0 0 1 323.4 81.7 Q 323.2 81.499 323.133 81.299 A 0.629 0.629 0 0 1 323.1 81.1 A 1.024 1.024 0 0 1 323.1 81.091 Q 323.106 80.496 323.8 80.05 Q 324.412 79.656 324.872 79.99 A 1.075 1.075 0 0 1 325 80.1 A 2.646 2.646 0 0 0 326.309 80.805 A 3.969 3.969 0 0 0 327.2 80.9 Q 328.5 80.9 330.3 80.1 Q 332.08 79.21 334.334 76.579 A 33.892 33.892 0 0 0 334.9 75.9 Q 337.5 72.7 339.9 68.25 Q 342.3 63.8 343.7 59.2 Q 344.1 57.2 344.35 55.5 A 23.057 23.057 0 0 0 344.594 52.702 A 20.786 20.786 0 0 0 344.6 52.2 A 9.307 9.307 0 0 0 344.544 51.145 Q 344.45 50.325 344.2 49.7 Q 343.8 48.7 342.7 48.7 A 1.734 1.734 0 0 0 342.156 48.798 Q 341.655 48.964 341.027 49.414 A 8.873 8.873 0 0 0 340.65 49.7 Q 339.4 50.7 338 53 A 24.884 24.884 0 0 0 337.787 53.383 Q 337.443 54.011 336.813 55.211 A 358.468 358.468 0 0 0 336.4 56 A 583.866 583.866 0 0 0 334.106 60.444 A 635.931 635.931 0 0 0 333.95 60.75 Q 332.7 63.2 331.9 64.5 Q 331.367 65.3 330.992 65.389 A 0.396 0.396 0 0 1 330.9 65.4 Q 330.525 65.4 330.502 64.785 A 2.227 2.227 0 0 1 330.5 64.7 A 2.825 2.825 0 0 1 330.606 63.952 Q 330.694 63.634 330.852 63.3 A 4.969 4.969 0 0 1 330.9 63.2 L 332.55 59.9 Q 333.6 57.8 334.85 55.45 A 66.682 66.682 0 0 1 336.374 52.734 A 54.081 54.081 0 0 1 337.35 51.15 Q 338.6 49.2 339.6 48.3 Q 340.6 47.5 342 46.8 A 6.742 6.742 0 0 1 343.575 46.234 A 5.717 5.717 0 0 1 344.8 46.1 A 6.216 6.216 0 0 1 346.289 46.266 A 3.698 3.698 0 0 1 348.8 48.2 A 9.37 9.37 0 0 1 349.704 50.896 A 12.929 12.929 0 0 1 349.9 53.2 Q 349.9 55.9 349.3 58.8 Q 351.1 55.4 353.3 52.2 Q 355.268 49.338 357.196 47.315 A 27.228 27.228 0 0 1 357.65 46.85 Q 359.333 45.167 360.556 44.556 A 3.772 3.772 0 0 1 361.2 44.3 A 1.89 1.89 0 0 1 361.791 44.2 A 1.801 1.801 0 0 1 361.8 44.2 L 362.4 44.2 A 4.369 4.369 0 0 1 363.399 44.309 A 3.307 3.307 0 0 1 364.45 44.75 Q 365.3 45.3 365.3 46.5 A 3.602 3.602 0 0 1 364.305 48.994 A 4.963 4.963 0 0 1 364 49.3 A 5.015 5.015 0 0 1 362.954 50.054 A 3.693 3.693 0 0 1 361.2 50.5 A 3.995 3.995 0 0 1 360.287 50.404 Q 358.931 50.085 358.7 48.7 A 28.871 28.871 0 0 0 356.093 51.512 Q 354.313 53.688 352.55 56.55 A 55.521 55.521 0 0 0 349.334 62.527 A 45.538 45.538 0 0 0 347.8 66.3 A 24.006 24.006 0 0 0 347.505 69.548 A 21.829 21.829 0 0 0 347.5 70 A 18.583 18.583 0 0 0 347.603 72.021 Q 347.788 73.701 348.3 74.95 Q 349.1 76.9 350.5 77.3 Q 350.861 77.39 351.468 77.399 A 9.202 9.202 0 0 0 351.6 77.4 Q 354.301 77.4 356.677 74.981 A 12.222 12.222 0 0 0 356.85 74.8 A 28.364 28.364 0 0 0 359.177 71.965 Q 360.238 70.496 361.259 68.754 A 47.978 47.978 0 0 0 361.55 68.25 Q 363.8 64.3 365.8 60.4 Q 366.2 59.4 366.9 59.4 Q 367.139 59.4 367.283 59.685 A 1.233 1.233 0 0 1 367.35 59.85 Q 367.483 60.249 367.263 60.765 A 2.464 2.464 0 0 1 367.2 60.9 A 1457.106 1457.106 0 0 1 366.083 63.221 Q 365.322 64.8 364.45 66.6 Q 362.9 69.8 360.85 72.8 A 19.974 19.974 0 0 1 357.381 76.709 A 18.161 18.161 0 0 1 356.05 77.75 A 10.605 10.605 0 0 1 350.147 79.692 A 13.007 13.007 0 0 1 349.7 79.7 A 6.538 6.538 0 0 1 347.721 79.412 A 5.399 5.399 0 0 1 345.7 78.25 A 9.366 9.366 0 0 1 343.416 75.047 A 10.949 10.949 0 0 1 343.25 74.65 Q 342.4 72.5 342.4 70.4 Z M 266.7 43.8 L 261.4 43.8 Q 260.814 43.8 260.719 43.1 A 2.224 2.224 0 0 1 260.7 42.8 A 1.713 1.713 0 0 1 260.818 42.16 A 1.623 1.623 0 0 1 260.95 41.9 Q 261.2 41.5 261.7 41.5 L 267.7 41.5 Q 269.4 37.7 271.3 34.1 Q 273.2 30.5 275 27.3 Q 276.754 24.249 278.683 22.362 A 13.598 13.598 0 0 1 279.9 21.3 Q 282.5 19.3 284.4 19.3 A 3.154 3.154 0 0 1 286.757 20.294 A 3.957 3.957 0 0 1 286.9 20.45 A 3.615 3.615 0 0 1 287.579 21.663 Q 287.765 22.203 287.843 22.866 A 8.835 8.835 0 0 1 287.9 23.9 A 9.102 9.102 0 0 1 287.843 24.864 Q 287.733 25.888 287.411 27.284 A 35.7 35.7 0 0 1 287.3 27.75 A 23.612 23.612 0 0 1 286.404 30.585 A 30.632 30.632 0 0 1 285.4 32.9 Q 284.864 33.972 284.006 35.747 A 580.991 580.991 0 0 0 283.45 36.9 A 66.691 66.691 0 0 1 282.215 39.346 A 48.498 48.498 0 0 1 281 41.5 L 285.8 41.5 Q 286.386 41.5 286.481 42.2 A 2.224 2.224 0 0 1 286.5 42.5 A 1.826 1.826 0 0 1 286.439 42.959 A 2.526 2.526 0 0 1 286.3 43.35 A 1.023 1.023 0 0 1 286.18 43.557 Q 286.078 43.69 285.944 43.75 A 0.589 0.589 0 0 1 285.7 43.8 L 279.8 43.8 Q 277.3 48.1 274.1 52.2 Q 270.9 56.3 266.5 60.4 Q 266.2 61.3 265.75 63 Q 265.3 64.7 264.95 66.45 A 541.209 541.209 0 0 1 264.702 67.685 Q 264.506 68.65 264.35 69.4 L 264.1 70.6 Q 263.8 71.9 263.8 73 Q 263.8 75.1 264.8 76.05 Q 265.8 77 267.1 77 Q 267.9 77 268.7 76.75 Q 269.5 76.5 270.5 75.8 A 21.061 21.061 0 0 0 274.543 71.972 A 27.227 27.227 0 0 0 276.65 69 Q 279.3 64.7 281.3 60.7 A 5.159 5.159 0 0 1 281.553 60.247 Q 281.83 59.811 282.106 59.629 A 0.713 0.713 0 0 1 282.5 59.5 A 0.366 0.366 0 0 1 282.71 59.558 Q 282.9 59.686 282.9 60.1 A 1.034 1.034 0 0 1 282.884 60.268 Q 282.837 60.544 282.659 61.039 A 12.457 12.457 0 0 1 282.6 61.2 A 309.742 309.742 0 0 1 281.544 63.388 Q 280.025 66.5 278.9 68.6 Q 277.678 70.88 276.523 72.531 A 24.032 24.032 0 0 1 276 73.25 A 28.228 28.228 0 0 1 273.893 75.713 A 33.887 33.887 0 0 1 272.7 76.9 Q 271.3 78.3 269.5 79 Q 267.7 79.7 265.9 79.7 Q 263.1 79.7 260.9 77.75 Q 258.7 75.8 258.7 71.6 A 22.45 22.45 0 0 1 258.869 68.968 Q 259.032 67.59 259.354 66.017 A 52.228 52.228 0 0 1 259.95 63.45 A 116.39 116.39 0 0 1 261.952 56.592 A 136.321 136.321 0 0 1 263.05 53.35 Q 264.9 48.1 266.7 43.8 Z M 125.112 79.906 A 18.577 18.577 0 0 0 127.9 80.1 Q 130.449 80.1 132.572 79.582 A 13.065 13.065 0 0 0 137.05 77.6 A 19.089 19.089 0 0 0 140.148 74.861 A 23.463 23.463 0 0 0 143.1 70.8 A 99.986 99.986 0 0 0 145.038 67.303 A 123.639 123.639 0 0 0 148 61.3 Q 148.197 60.906 148.265 60.599 A 1.396 1.396 0 0 0 148.3 60.3 A 2.425 2.425 0 0 0 148.299 60.244 Q 148.282 59.506 147.808 59.5 A 0.618 0.618 0 0 0 147.8 59.5 A 0.713 0.713 0 0 0 147.406 59.629 Q 147.13 59.811 146.853 60.247 A 5.159 5.159 0 0 0 146.6 60.7 Q 144.6 64.6 142.15 68.7 A 32.442 32.442 0 0 1 140.383 71.359 A 26.296 26.296 0 0 1 136.55 75.55 A 10.964 10.964 0 0 1 133.439 77.478 A 11.724 11.724 0 0 1 129 78.3 A 7.298 7.298 0 0 1 127.732 78.195 A 4.487 4.487 0 0 1 124.45 75.95 A 9.823 9.823 0 0 1 123.527 73.769 A 11.394 11.394 0 0 1 123.1 70.6 Q 123.1 67.7 124.1 64.65 Q 125.1 61.6 126.35 59.05 A 50.878 50.878 0 0 1 126.761 58.229 Q 127.752 56.298 128.5 55.3 Q 130.7 52.1 133.65 49.35 A 14.865 14.865 0 0 1 134.964 48.252 Q 135.907 47.558 136.824 47.155 A 6.129 6.129 0 0 1 139.3 46.6 A 3.75 3.75 0 0 1 139.92 46.648 Q 141.7 46.947 141.7 49.1 A 7.204 7.204 0 0 1 141.7 49.138 A 7.558 7.558 0 0 1 141.3 51.5 A 9.543 9.543 0 0 1 140.755 52.867 A 12.959 12.959 0 0 1 140 54.2 A 39.872 39.872 0 0 1 139.749 54.586 Q 138.988 55.741 138.3 56.6 A 2.504 2.504 0 0 0 138.339 56.638 A 1.908 1.908 0 0 0 139.7 57.2 A 3.244 3.244 0 0 0 141.077 56.88 Q 141.612 56.632 142.147 56.19 A 8.214 8.214 0 0 0 143.1 55.25 Q 143.87 54.366 144.333 53.473 A 6.012 6.012 0 0 0 145 51.3 Q 145.134 50.227 145.021 49.301 A 5.318 5.318 0 0 0 143.6 46.2 A 5.27 5.27 0 0 0 142.059 45.085 Q 141.189 44.662 140.079 44.467 A 12.03 12.03 0 0 0 138 44.3 A 12.277 12.277 0 0 0 134.418 44.84 A 15.107 15.107 0 0 0 130.9 46.45 Q 127.4 48.6 124.5 52.5 A 34.018 34.018 0 0 0 122.194 55.986 A 42.773 42.773 0 0 0 119.65 61.2 A 29.714 29.714 0 0 0 118.213 65.608 A 21.619 21.619 0 0 0 117.6 70.6 A 12.878 12.878 0 0 0 117.668 71.938 A 9.82 9.82 0 0 0 119.9 77.35 A 6.686 6.686 0 0 0 122.552 79.225 Q 123.681 79.688 125.112 79.906 Z M 101.9 80.1 Q 98.2 80.1 95.25 77.7 A 7.63 7.63 0 0 1 92.698 73.661 Q 92.35 72.382 92.306 70.845 A 15.717 15.717 0 0 1 92.3 70.4 Q 92.3 66.032 94.373 61.051 A 35.085 35.085 0 0 1 94.5 60.75 Q 96.7 55.6 100.1 51.7 A 27.275 27.275 0 0 1 106.042 46.451 A 25.658 25.658 0 0 1 106.6 46.1 A 17.553 17.553 0 0 1 109.244 44.759 Q 110.794 44.142 112.263 43.968 A 9.679 9.679 0 0 1 113.4 43.9 A 6.758 6.758 0 0 1 115.48 44.209 A 5.814 5.814 0 0 1 117.2 45.1 A 4.229 4.229 0 0 1 118.867 48.147 A 6.17 6.17 0 0 1 118.9 48.8 A 7.802 7.802 0 0 1 118.536 51.083 Q 118.244 52.039 117.717 53.057 A 16.581 16.581 0 0 1 117 54.3 A 18.524 18.524 0 0 1 114.443 57.462 A 25.416 25.416 0 0 1 111.6 59.9 A 15.287 15.287 0 0 1 110.163 60.827 Q 109.112 61.43 107.8 62 Q 105.5 63 103.2 63.65 Q 100.913 64.296 99.417 64.3 A 6.934 6.934 0 0 1 99.4 64.3 Q 98.9 65.5 98.45 67.5 Q 98 69.5 98 71.6 A 10.768 10.768 0 0 0 98.317 74.254 A 9.132 9.132 0 0 0 99 76.1 A 3.427 3.427 0 0 0 101.483 77.981 A 5.826 5.826 0 0 0 102.7 78.1 Q 106 78.1 108.7 76.2 A 20.669 20.669 0 0 0 113.067 72.019 A 23.539 23.539 0 0 0 113.5 71.45 Q 115.6 68.6 117.05 65.7 Q 118.483 62.835 119.379 60.848 A 73.232 73.232 0 0 0 119.4 60.8 A 3.877 3.877 0 0 1 119.703 60.221 Q 120.235 59.4 121 59.4 A 0.72 0.72 0 0 1 121.198 59.425 Q 121.5 59.511 121.5 59.9 A 1.396 1.396 0 0 1 121.465 60.199 Q 121.397 60.506 121.2 60.9 Q 119.8 63.9 118.2 67.25 Q 116.6 70.6 114.4 73.55 Q 112.2 76.5 109.15 78.3 A 12.763 12.763 0 0 1 104.77 79.868 A 17.035 17.035 0 0 1 101.9 80.1 Z M 312.1 66.7 L 318.8 49.6 Q 319.1 48.8 319.1 48.2 A 3.378 3.378 0 0 0 318.963 47.222 A 2.88 2.88 0 0 0 318.6 46.45 L 317.9 45.4 L 323.4 45.2 A 8.467 8.467 0 0 1 323.666 45.186 Q 324.916 45.142 325.51 45.523 A 1.366 1.366 0 0 1 325.55 45.55 Q 325.995 45.858 326.136 46.237 A 1.037 1.037 0 0 1 326.2 46.6 Q 326.2 47.2 325.5 48.8 L 317.2 68.3 L 316.65 69.55 Q 316.182 70.614 316.04 71.062 A 2.347 2.347 0 0 0 316 71.2 A 192.59 192.59 0 0 1 315.895 71.724 Q 315.689 72.736 315.606 73.075 A 5.285 5.285 0 0 1 315.6 73.1 A 11.198 11.198 0 0 0 315.566 73.239 Q 315.5 73.519 315.5 73.6 L 315.5 74.4 A 4.319 4.319 0 0 0 315.625 75.461 A 3.311 3.311 0 0 0 316.15 76.6 A 1.987 1.987 0 0 0 317.109 77.302 Q 317.65 77.5 318.4 77.5 A 4.066 4.066 0 0 0 319.262 77.401 Q 319.678 77.311 320.136 77.137 A 8.65 8.65 0 0 0 320.7 76.9 Q 321.921 76.336 322.525 75.773 A 3.068 3.068 0 0 0 322.6 75.7 A 26.996 26.996 0 0 0 324.701 73.213 Q 325.686 71.903 326.663 70.332 A 51.31 51.31 0 0 0 327.55 68.85 Q 330 64.6 332.1 60.4 Q 332.5 59.4 333.1 59.4 Q 333.6 59.4 333.6 60.1 A 1.59 1.59 0 0 1 333.577 60.353 Q 333.517 60.722 333.3 61.3 Q 332.312 63.375 330.836 66.426 A 1624.635 1624.635 0 0 1 330.8 66.5 A 49.722 49.722 0 0 1 327.754 71.887 A 55.017 55.017 0 0 1 327.25 72.65 A 26.718 26.718 0 0 1 324.973 75.594 A 20.907 20.907 0 0 1 322.8 77.7 A 9.019 9.019 0 0 1 320.503 79.119 A 7.466 7.466 0 0 1 317.6 79.7 A 9.94 9.94 0 0 1 315.705 79.532 Q 314.663 79.329 313.871 78.881 A 4.429 4.429 0 0 1 312.4 77.55 Q 310.9 75.4 310.9 72.6 A 13.74 13.74 0 0 1 311.208 69.744 A 15.172 15.172 0 0 1 311.25 69.55 A 22.142 22.142 0 0 1 311.746 67.71 A 18.168 18.168 0 0 1 312.1 66.7 Z M 100.1 62.5 Q 101.5 62.5 104.8 61.45 Q 108.1 60.4 110.8 58.1 A 18.501 18.501 0 0 0 113.465 55.21 A 15.566 15.566 0 0 0 114.8 53.05 A 17.813 17.813 0 0 0 115.535 51.424 Q 116.2 49.71 116.2 48.4 A 4.456 4.456 0 0 0 116.137 47.611 Q 115.881 46.2 114.6 46.2 Q 113.4 46.2 111.3 47.8 A 17.151 17.151 0 0 0 109.965 48.944 Q 108.675 50.157 107.095 52.007 A 69.25 69.25 0 0 0 106.1 53.2 A 50.388 50.388 0 0 0 102.928 57.706 A 55.924 55.924 0 0 0 102.5 58.4 Q 100.8 61.2 100.1 62.5 Z M 273.8 41.5 L 278.9 41.5 A 190.071 190.071 0 0 0 281.511 36.478 A 173.6 173.6 0 0 0 281.55 36.4 Q 282.8 33.9 283.8 31.4 A 20.413 20.413 0 0 0 284.524 29.473 A 26.2 26.2 0 0 0 285 27.8 A 25.791 25.791 0 0 0 285.242 26.746 Q 285.452 25.724 285.491 25.009 A 5.68 5.68 0 0 0 285.5 24.7 A 4.854 4.854 0 0 0 285.478 24.209 Q 285.374 23.2 284.8 23.2 A 0.878 0.878 0 0 0 284.503 23.26 Q 284.071 23.417 283.42 23.988 A 9.376 9.376 0 0 0 283.35 24.05 A 8.249 8.249 0 0 0 282.78 24.619 Q 282.188 25.265 281.459 26.259 A 36.093 36.093 0 0 0 281 26.9 A 26.263 26.263 0 0 0 279.657 28.979 Q 278.961 30.168 278.273 31.578 A 52.934 52.934 0 0 0 277.45 33.35 A 1134.456 1134.456 0 0 1 274.273 40.454 A 1249.214 1249.214 0 0 1 273.8 41.5 Z M 277.5 43.8 L 272.8 43.8 Q 271.2 47.5 269.8 51 A 1313.091 1313.091 0 0 1 268.633 53.909 Q 268.097 55.238 267.615 56.425 A 752.849 752.849 0 0 1 267.3 57.2 Q 270.2 54.2 272.75 50.8 Q 275.3 47.4 277.5 43.8 Z M 325.7 39.1 Q 324.2 39.1 323.25 38.05 Q 322.3 37 322.3 35.5 A 4.308 4.308 0 0 1 323.575 32.422 A 5.811 5.811 0 0 1 323.8 32.2 A 5.609 5.609 0 0 1 325.094 31.281 A 4.392 4.392 0 0 1 327.1 30.8 A 4.17 4.17 0 0 1 328.301 30.965 A 3.28 3.28 0 0 1 329.7 31.8 A 3.27 3.27 0 0 1 330.7 34.156 A 3.89 3.89 0 0 1 330.7 34.2 A 4.532 4.532 0 0 1 329.632 37.121 A 6.167 6.167 0 0 1 329.2 37.6 A 5.227 5.227 0 0 1 327.657 38.689 A 4.698 4.698 0 0 1 325.7 39.1 Z" vector-effect="non-scaling-stroke"/></g></svg>