<svg
            xmlns="http://www.w3.org/2000/svg"
            xmlnsXlink="http://www.w3.org/1999/xlink"
            width="16"
            height="16"
            version="1.1"
            viewBox="0 0 4.233 4.233"
            xmlSpace="preserve"
        >
	<defs>
		<linearGradient id="linearGradient4313">
			<stop offset="0" stopColor="#c62368" stopOpacity="1"></stop>
			<stop offset="0.5" stopColor="#fa7268" stopOpacity="1"></stop>
			<stop offset="1" stopColor="#ebd999" stopOpacity="1"></stop>
		</linearGradient>
		<clipPath id="clipPath4245" clipPathUnits="userSpaceOnUse">
			<path
				fill="none"
				stroke="#61083c"
				strokeLinecap="round"
				strokeLinejoin="round"
				strokeWidth="0.199"
				d="M4.134 2.117a2.017 2.017 0 01-2.017 2.017A2.017 2.017 0 01.1 2.117 2.017 2.017 0 012.117.1a2.017 2.017 0 012.017 2.017z"
                    ></path>
		</clipPath>
		<linearGradient
			id="linearGradient4404"
			x1="-0.088"
			x2="3.504"
			y1="3.597"
			y2="0.221"
			gradientUnits="userSpaceOnUse"
			xlinkHref="#linearGradient4313"
                ></linearGradient>
		<linearGradient
			id="linearGradient5925"
			x1="3.694"
			x2="0.493"
			y1="3.801"
			y2="0.386"
			gradientUnits="userSpaceOnUse"
			xlinkHref="#linearGradient4313"
                ></linearGradient>
		<linearGradient
			id="linearGradient5933"
			x1="1.508"
			x2="2.687"
			y1="2.119"
			y2="0.826"
			gradientUnits="userSpaceOnUse"
			xlinkHref="#linearGradient4313"
                ></linearGradient>
		<linearGradient
			id="linearGradient5941"
			x1="1.508"
			x2="2.687"
			y1="2.119"
			y2="0.826"
			gradientUnits="userSpaceOnUse"
			xlinkHref="#linearGradient4313"
                ></linearGradient>
	</defs>
	<g strokeLinecap="round">
		<path
			fill="url(#linearGradient4404)"
			fillOpacity="1"
			stroke="#61083c"
			strokeWidth="0"
			d="M.265 4.216c0-.632.77-1.57 1.852-1.57 1.081 0 1.852.763 1.852 1.57z"
			clipPath="url(#clipPath4245)"
                ></path>
		<ellipse
			cx="2.117"
			cy="1.587"
			fill="url(#linearGradient5941)"
			fillOpacity="1"
			stroke="url(#linearGradient5933)"
			strokeDasharray="none"
			strokeLinejoin="miter"
			strokeWidth="0"
			rx="0.794"
			ry="0.794"
                ></ellipse>
		<path
			fill="none"
			stroke="url(#linearGradient5925)"
			strokeLinejoin="round"
			strokeWidth="0.199"
			d="M4.144 2.127a2.017 2.017 0 01-2.017 2.017A2.017 2.017 0 01.11 2.127 2.017 2.017 0 012.127.11a2.017 2.017 0 012.017 2.017z"
                ></path>
	</g>
</svg>